<svg version="1.1" xmlns="http://www.w3.org/2000/svg" xmlns:xlink="http://www.w3.org/1999/xlink" width="983" height="591"><defs/><g><g transform="translate(-6,-46) scale(1,1)"><rect fill="#C0C0C0" stroke="none" x="599" y="519" width="185.2744140625" height="115" opacity="0.2"/></g><g transform="translate(-6,-46) scale(1,1)"><rect fill="#ffffff" stroke="none" x="592" y="512" width="185.2744140625" height="115"/></g><g transform="translate(-6,-46) scale(1,1)"><path fill="none" stroke="#000000" d="M 592 512 L 777.2744140625 512 L 777.2744140625 627 L 592 627 L 592 512 Z Z" stroke-miterlimit="10"/></g><g transform="translate(-6,-46) scale(1,1)"><path fill="none" stroke="#000000" d="M 592 537 L 777.2744140625 537" stroke-miterlimit="10"/></g><g transform="translate(-6,-46) scale(1,1)"><path fill="none" stroke="#000000" d="M 592 590 L 777.2744140625 590" stroke-miterlimit="10"/></g><g transform="translate(-6,-46) scale(1,1)"><g><path fill="none" stroke="none"/><text fill="#000000" stroke="none" font-family="Arial" font-size="13px" font-style="normal" font-weight="bold" text-decoration="none" x="654.641357421875" y="531.5">Пассажир</text></g></g><g transform="translate(-6,-46) scale(1,1)"><g><path fill="none" stroke="none"/><text fill="#000000" stroke="none" font-family="Arial" font-size="13px" font-style="normal" font-weight="normal" text-decoration="none" x="597" y="554.5">+этаж отправления</text></g></g><g transform="translate(-6,-46) scale(1,1)"><g><path fill="none" stroke="none"/><text fill="#000000" stroke="none" font-family="Arial" font-size="13px" font-style="normal" font-weight="normal" text-decoration="none" x="597" y="569.5">+этаж назначения</text></g></g><g transform="translate(-6,-46) scale(1,1)"><g><path fill="none" stroke="none"/><text fill="#000000" stroke="none" font-family="Arial" font-size="13px" font-style="normal" font-weight="normal" text-decoration="none" x="597" y="584.5">+вероятность захода</text></g></g><g transform="translate(-6,-46) scale(1,1)"><g><path fill="none" stroke="none"/><text fill="#000000" stroke="none" font-family="Arial" font-size="13px" font-style="normal" font-weight="normal" text-decoration="none" x="597" y="607.5">+Поехать или нет()</text></g></g><g transform="translate(-6,-46) scale(1,1)"><g><path fill="none" stroke="none"/><text fill="#000000" stroke="none" font-family="Arial" font-size="13px" font-style="normal" font-weight="normal" text-decoration="none" x="597" y="622.5">+Заполнить поля рандомно()</text></g></g><g transform="translate(-6,-46) scale(1,1)"><rect fill="#C0C0C0" stroke="none" x="575" y="367" width="235.32568359375" height="132" opacity="0.2"/></g><g transform="translate(-6,-46) scale(1,1)"><rect fill="#ffffff" stroke="none" x="568" y="360" width="235.32568359375" height="132"/></g><g transform="translate(-6,-46) scale(1,1)"><path fill="none" stroke="#000000" d="M 568 360 L 803.32568359375 360 L 803.32568359375 492 L 568 492 L 568 360 Z Z" stroke-miterlimit="10"/></g><g transform="translate(-6,-46) scale(1,1)"><path fill="none" stroke="#000000" d="M 568 385 L 803.32568359375 385" stroke-miterlimit="10"/></g><g transform="translate(-6,-46) scale(1,1)"><path fill="none" stroke="#000000" d="M 568 483 L 803.32568359375 483" stroke-miterlimit="10"/></g><g transform="translate(-6,-46) scale(1,1)"><g><path fill="none" stroke="none"/><text fill="#000000" stroke="none" font-family="Arial" font-size="13px" font-style="normal" font-weight="bold" text-decoration="none" x="669.44140625" y="379.5">Лифт</text></g></g><g transform="translate(-6,-46) scale(1,1)"><g><path fill="none" stroke="none"/><text fill="#000000" stroke="none" font-family="Arial" font-size="13px" font-style="normal" font-weight="normal" text-decoration="none" x="573" y="402.5">+количество пассажтров</text></g></g><g transform="translate(-6,-46) scale(1,1)"><g><path fill="none" stroke="none"/><text fill="#000000" stroke="none" font-family="Arial" font-size="13px" font-style="normal" font-weight="normal" text-decoration="none" x="573" y="417.5">+направление движения</text></g></g><g transform="translate(-6,-46) scale(1,1)"><g><path fill="none" stroke="none"/><text fill="#000000" stroke="none" font-family="Arial" font-size="13px" font-style="normal" font-weight="normal" text-decoration="none" x="573" y="432.5">+местонахождение</text></g></g><g transform="translate(-6,-46) scale(1,1)"><g><path fill="none" stroke="none"/><text fill="#000000" stroke="none" font-family="Arial" font-size="13px" font-style="normal" font-weight="normal" text-decoration="none" x="573" y="447.5">+грузоподъемность</text></g></g><g transform="translate(-6,-46) scale(1,1)"><g><path fill="none" stroke="none"/><text fill="#000000" stroke="none" font-family="Arial" font-size="13px" font-style="normal" font-weight="normal" text-decoration="none" x="573" y="462.5">+возможный начальный этаж</text></g></g><g transform="translate(-6,-46) scale(1,1)"><g><path fill="none" stroke="none"/><text fill="#000000" stroke="none" font-family="Arial" font-size="13px" font-style="normal" font-weight="normal" text-decoration="none" x="573" y="477.5">+возможный конечный этаж</text></g></g><g transform="translate(-6,-46) scale(1,1)"><rect fill="#C0C0C0" stroke="none" x="343" y="503" width="183.4208984375" height="130" opacity="0.2"/></g><g transform="translate(-6,-46) scale(1,1)"><rect fill="#ffffff" stroke="none" x="336" y="496" width="183.4208984375" height="130"/></g><g transform="translate(-6,-46) scale(1,1)"><path fill="none" stroke="#000000" d="M 336 496 L 519.4208984375 496 L 519.4208984375 626 L 336 626 L 336 496 Z Z" stroke-miterlimit="10"/></g><g transform="translate(-6,-46) scale(1,1)"><path fill="none" stroke="#000000" d="M 336 521 L 519.4208984375 521" stroke-miterlimit="10"/></g><g transform="translate(-6,-46) scale(1,1)"><path fill="none" stroke="#000000" d="M 336 559 L 519.4208984375 559" stroke-miterlimit="10"/></g><g transform="translate(-6,-46) scale(1,1)"><g><path fill="none" stroke="none"/><text fill="#000000" stroke="none" font-family="Arial" font-size="13px" font-style="normal" font-weight="bold" text-decoration="none" x="370.527587890625" y="515.5">Контроллер лифта</text></g></g><g transform="translate(-6,-46) scale(1,1)"><g><path fill="none" stroke="none"/><text fill="#000000" stroke="none" font-family="Arial" font-size="13px" font-style="normal" font-weight="normal" text-decoration="none" x="341" y="538.5">+лифт</text></g></g><g transform="translate(-6,-46) scale(1,1)"><g><path fill="none" stroke="none"/><text fill="#000000" stroke="none" font-family="Arial" font-size="13px" font-style="normal" font-weight="normal" text-decoration="none" x="341" y="553.5">+список пассажиров</text></g></g><g transform="translate(-6,-46) scale(1,1)"><g><path fill="none" stroke="none"/><text fill="#000000" stroke="none" font-family="Arial" font-size="13px" font-style="normal" font-weight="normal" text-decoration="none" x="341" y="576.5">+Движение лифта()</text></g></g><g transform="translate(-6,-46) scale(1,1)"><g><path fill="none" stroke="none"/><text fill="#000000" stroke="none" font-family="Arial" font-size="13px" font-style="normal" font-weight="normal" text-decoration="none" x="341" y="591.5">+Остановка лифта()</text></g></g><g transform="translate(-6,-46) scale(1,1)"><g><path fill="none" stroke="none"/><text fill="#000000" stroke="none" font-family="Arial" font-size="13px" font-style="normal" font-weight="normal" text-decoration="none" x="341" y="606.5">+Посадка в лифт()</text></g></g><g transform="translate(-6,-46) scale(1,1)"><rect fill="#C0C0C0" stroke="none" x="23" y="295" width="159.69970703125" height="85" opacity="0.2"/></g><g transform="translate(-6,-46) scale(1,1)"><rect fill="#ffffff" stroke="none" x="16" y="288" width="159.69970703125" height="85"/></g><g transform="translate(-6,-46) scale(1,1)"><path fill="none" stroke="#000000" d="M 16 288 L 175.69970703125 288 L 175.69970703125 373 L 16 373 L 16 288 Z Z" stroke-miterlimit="10"/></g><g transform="translate(-6,-46) scale(1,1)"><path fill="none" stroke="#000000" d="M 16 313 L 175.69970703125 313" stroke-miterlimit="10"/></g><g transform="translate(-6,-46) scale(1,1)"><path fill="none" stroke="#000000" d="M 16 336 L 175.69970703125 336" stroke-miterlimit="10"/></g><g transform="translate(-6,-46) scale(1,1)"><g><path fill="none" stroke="none"/><text fill="#000000" stroke="none" font-family="Arial" font-size="13px" font-style="normal" font-weight="bold" text-decoration="none" x="42.719970703125" y="307.5">Отобразить лифт</text></g></g><g transform="translate(-6,-46) scale(1,1)"><g><path fill="none" stroke="none"/><text fill="#000000" stroke="none" font-family="Arial" font-size="13px" font-style="normal" font-weight="normal" text-decoration="none" x="21" y="330.5">+лифт</text></g></g><g transform="translate(-6,-46) scale(1,1)"><g><path fill="none" stroke="none"/><text fill="#000000" stroke="none" font-family="Arial" font-size="13px" font-style="normal" font-weight="normal" text-decoration="none" x="21" y="353.5">+Отобразить открытым()</text></g></g><g transform="translate(-6,-46) scale(1,1)"><g><path fill="none" stroke="none"/><text fill="#000000" stroke="none" font-family="Arial" font-size="13px" font-style="normal" font-weight="normal" text-decoration="none" x="21" y="368.5">+Отобразить закрытым()</text></g></g><g transform="translate(-6,-46) scale(1,1)"><rect fill="#C0C0C0" stroke="none" x="119" y="159" width="256.9775390625" height="117" opacity="0.2"/></g><g transform="translate(-6,-46) scale(1,1)"><rect fill="#ffffff" stroke="none" x="112" y="152" width="256.9775390625" height="117"/></g><g transform="translate(-6,-46) scale(1,1)"><path fill="none" stroke="#000000" d="M 112 152 L 368.9775390625 152 L 368.9775390625 269 L 112 269 L 112 152 Z Z" stroke-miterlimit="10"/></g><g transform="translate(-6,-46) scale(1,1)"><path fill="none" stroke="#000000" d="M 112 177 L 368.9775390625 177" stroke-miterlimit="10"/></g><g transform="translate(-6,-46) scale(1,1)"><path fill="none" stroke="#000000" d="M 112 245 L 368.9775390625 245" stroke-miterlimit="10"/></g><g transform="translate(-6,-46) scale(1,1)"><g><path fill="none" stroke="none"/><text fill="#000000" stroke="none" font-family="Arial" font-size="13px" font-style="normal" font-weight="bold" text-decoration="none" x="125.6279296875" y="171.5">Отобразить информационную панель</text></g></g><g transform="translate(-6,-46) scale(1,1)"><g><path fill="none" stroke="none"/><text fill="#000000" stroke="none" font-family="Arial" font-size="13px" font-style="normal" font-weight="normal" text-decoration="none" x="117" y="194.5">+количество пассажиров</text></g></g><g transform="translate(-6,-46) scale(1,1)"><g><path fill="none" stroke="none"/><text fill="#000000" stroke="none" font-family="Arial" font-size="13px" font-style="normal" font-weight="normal" text-decoration="none" x="117" y="209.5">+направление движения</text></g></g><g transform="translate(-6,-46) scale(1,1)"><g><path fill="none" stroke="none"/><text fill="#000000" stroke="none" font-family="Arial" font-size="13px" font-style="normal" font-weight="normal" text-decoration="none" x="117" y="224.5">+местонахождение</text></g></g><g transform="translate(-6,-46) scale(1,1)"><g><path fill="none" stroke="none"/><text fill="#000000" stroke="none" font-family="Arial" font-size="13px" font-style="normal" font-weight="normal" text-decoration="none" x="117" y="239.5">+грузоподъемность</text></g></g><g transform="translate(-6,-46) scale(1,1)"><g><path fill="none" stroke="none"/><text fill="#000000" stroke="none" font-family="Arial" font-size="13px" font-style="normal" font-weight="normal" text-decoration="none" x="117" y="262.5">+Отобразить()</text></g></g><g transform="translate(-6,-46) scale(1,1)"><rect fill="#C0C0C0" stroke="none" x="39" y="527" width="181.70068359375" height="100" opacity="0.2"/></g><g transform="translate(-6,-46) scale(1,1)"><rect fill="#ffffff" stroke="none" x="32" y="520" width="181.70068359375" height="100"/></g><g transform="translate(-6,-46) scale(1,1)"><path fill="none" stroke="#000000" d="M 32 520 L 213.70068359375 520 L 213.70068359375 620 L 32 620 L 32 520 Z Z" stroke-miterlimit="10"/></g><g transform="translate(-6,-46) scale(1,1)"><path fill="none" stroke="#000000" d="M 32 545 L 213.70068359375 545" stroke-miterlimit="10"/></g><g transform="translate(-6,-46) scale(1,1)"><path fill="none" stroke="#000000" d="M 32 568 L 213.70068359375 568" stroke-miterlimit="10"/></g><g transform="translate(-6,-46) scale(1,1)"><g><path fill="none" stroke="none"/><text fill="#000000" stroke="none" font-family="Arial" font-size="13px" font-style="normal" font-weight="bold" text-decoration="none" x="45.167724609375" y="539.5">Контроллер отображения</text></g></g><g transform="translate(-6,-46) scale(1,1)"><g><path fill="none" stroke="none"/><text fill="#000000" stroke="none" font-family="Arial" font-size="13px" font-style="normal" font-weight="normal" text-decoration="none" x="37" y="562.5">+массив русуемых объектов</text></g></g><g transform="translate(-6,-46) scale(1,1)"><g><path fill="none" stroke="none"/><text fill="#000000" stroke="none" font-family="Arial" font-size="13px" font-style="normal" font-weight="normal" text-decoration="none" x="37" y="585.5">+Рисовать движение()</text></g></g><g transform="translate(-6,-46) scale(1,1)"><g><path fill="none" stroke="none"/><text fill="#000000" stroke="none" font-family="Arial" font-size="13px" font-style="normal" font-weight="normal" text-decoration="none" x="37" y="600.5">+Рисовать остановку()</text></g></g><g transform="translate(-6,-46) scale(1,1)"><g><path fill="none" stroke="none"/><text fill="#000000" stroke="none" font-family="Arial" font-size="13px" font-style="normal" font-weight="normal" text-decoration="none" x="37" y="615.5">+Рисовать посадку()</text></g></g><g transform="translate(-6,-46) scale(1,1)"><path fill="none" stroke="#000000" d="M 100 374 L 116 519" stroke-miterlimit="10"/></g><g transform="translate(-6,-46) scale(1,1)"><path fill="#FFFFFF" stroke="none" d="M 110.70124480796606 509.3603322974859 L 116 519 L 119.06948867269806 508.43693987103273 L 113.58705930709787 497.1327249705745"/></g><g transform="translate(-6,-46) scale(1,1)"><path fill="none" stroke="#000000" d="M 110.70124480796606 509.3603322974859 L 116 519 L 119.06948867269806 508.43693987103273 L 113.58705930709787 497.1327249705745 L 110.70124480796606 509.3603322974859" stroke-miterlimit="10"/></g><g transform="translate(-6,-46) scale(1,1)"><path fill="none" stroke="#000000" d="M 220 270 L 139 519" stroke-miterlimit="10"/></g><g transform="translate(-6,-46) scale(1,1)"><path fill="#FFFFFF" stroke="none" d="M 138.14073372788505 508.0336121957316 L 139 519 L 146.14681417366222 510.637999810623 L 145.8055928075996 498.07910359145313"/></g><g transform="translate(-6,-46) scale(1,1)"><path fill="none" stroke="#000000" d="M 138.14073372788505 508.0336121957316 L 139 519 L 146.14681417366222 510.637999810623 L 145.8055928075996 498.07910359145313 L 138.14073372788505 508.0336121957316" stroke-miterlimit="10"/></g><g transform="translate(-6,-46) scale(1,1)"><rect fill="#C0C0C0" stroke="none" x="231" y="327" width="267.71142578125" height="130" opacity="0.2"/></g><g transform="translate(-6,-46) scale(1,1)"><rect fill="#ffffff" stroke="none" x="224" y="320" width="267.71142578125" height="130"/></g><g transform="translate(-6,-46) scale(1,1)"><path fill="none" stroke="#000000" d="M 224 320 L 491.71142578125 320 L 491.71142578125 450 L 224 450 L 224 320 Z Z" stroke-miterlimit="10"/></g><g transform="translate(-6,-46) scale(1,1)"><path fill="none" stroke="#000000" d="M 224 345 L 491.71142578125 345" stroke-miterlimit="10"/></g><g transform="translate(-6,-46) scale(1,1)"><path fill="none" stroke="#000000" d="M 224 383 L 491.71142578125 383" stroke-miterlimit="10"/></g><g transform="translate(-6,-46) scale(1,1)"><g><path fill="none" stroke="none"/><text fill="#000000" stroke="none" font-family="Arial" font-size="13px" font-style="normal" font-weight="bold" text-decoration="none" x="273.53662109375" y="339.5">Главный контроллер лифта</text></g></g><g transform="translate(-6,-46) scale(1,1)"><g><path fill="none" stroke="none"/><text fill="#000000" stroke="none" font-family="Arial" font-size="13px" font-style="normal" font-weight="normal" text-decoration="none" x="229" y="362.5">+контроллер лифта</text></g></g><g transform="translate(-6,-46) scale(1,1)"><g><path fill="none" stroke="none"/><text fill="#000000" stroke="none" font-family="Arial" font-size="13px" font-style="normal" font-weight="normal" text-decoration="none" x="229" y="377.5">+контроллер отображения</text></g></g><g transform="translate(-6,-46) scale(1,1)"><g><path fill="none" stroke="none"/><text fill="#000000" stroke="none" font-family="Arial" font-size="13px" font-style="normal" font-weight="normal" text-decoration="none" x="229" y="400.5">+Движение()</text></g></g><g transform="translate(-6,-46) scale(1,1)"><g><path fill="none" stroke="none"/><text fill="#000000" stroke="none" font-family="Arial" font-size="13px" font-style="normal" font-weight="normal" text-decoration="none" x="229" y="415.5">+Остановка()</text></g></g><g transform="translate(-6,-46) scale(1,1)"><g><path fill="none" stroke="none"/><text fill="#000000" stroke="none" font-family="Arial" font-size="13px" font-style="normal" font-weight="normal" text-decoration="none" x="229" y="430.5">+Посадка()</text></g></g><g transform="translate(-6,-46) scale(1,1)"><g><path fill="none" stroke="none"/><text fill="#000000" stroke="none" font-family="Arial" font-size="13px" font-style="normal" font-weight="normal" text-decoration="none" x="229" y="445.5">+Куда ехать()</text></g></g><g transform="translate(-6,-46) scale(1,1)"><path fill="none" stroke="#000000" d="M 401 495 L 383 451" stroke-miterlimit="10"/></g><g transform="translate(-6,-46) scale(1,1)"><path fill="#FFFFFF" stroke="none" d="M 390.7440288476488 458.81217109431066 L 383 451 L 382.9518161553001 461.9998944684533 L 391.3299226058511 471.3620330365249"/></g><g transform="translate(-6,-46) scale(1,1)"><path fill="none" stroke="#000000" d="M 390.7440288476488 458.81217109431066 L 383 451 L 382.9518161553001 461.9998944684533 L 391.3299226058511 471.3620330365249 L 390.7440288476488 458.81217109431066" stroke-miterlimit="10"/></g><g transform="translate(-6,-46) scale(1,1)"><path fill="none" stroke="#000000" d="M 187 519 L 273 451" stroke-miterlimit="10"/></g><g transform="translate(-6,-46) scale(1,1)"><path fill="#FFFFFF" stroke="none" d="M 267.6391320935132 460.60526393646734 L 273 451 L 262.4173466857152 454.0012412148405 L 255.74285698544054 464.64518284872145"/></g><g transform="translate(-6,-46) scale(1,1)"><path fill="none" stroke="#000000" d="M 267.6391320935132 460.60526393646734 L 273 451 L 262.4173466857152 454.0012412148405 L 255.74285698544054 464.64518284872145 L 267.6391320935132 460.60526393646734" stroke-miterlimit="10"/></g><g transform="translate(-6,-46) scale(1,1)"><rect fill="#C0C0C0" stroke="none" x="575" y="63" width="240.13720703125" height="70" opacity="0.2"/></g><g transform="translate(-6,-46) scale(1,1)"><rect fill="#ffffff" stroke="none" x="568" y="56" width="240.13720703125" height="70"/></g><g transform="translate(-6,-46) scale(1,1)"><path fill="none" stroke="#000000" d="M 568 56 L 808.13720703125 56 L 808.13720703125 126 L 568 126 L 568 56 Z Z" stroke-miterlimit="10"/></g><g transform="translate(-6,-46) scale(1,1)"><path fill="none" stroke="#000000" d="M 568 81 L 808.13720703125 81" stroke-miterlimit="10"/></g><g transform="translate(-6,-46) scale(1,1)"><path fill="none" stroke="#000000" d="M 568 104 L 808.13720703125 104" stroke-miterlimit="10"/></g><g transform="translate(-6,-46) scale(1,1)"><g><path fill="none" stroke="none"/><text fill="#000000" stroke="none" font-family="Arial" font-size="13px" font-style="normal" font-weight="bold" text-decoration="none" x="637.1953125" y="75.5">Система лифтов</text></g></g><g transform="translate(-6,-46) scale(1,1)"><g><path fill="none" stroke="none"/><text fill="#000000" stroke="none" font-family="Arial" font-size="13px" font-style="normal" font-weight="normal" text-decoration="none" x="573" y="98.5">+список работа лифтов</text></g></g><g transform="translate(-6,-46) scale(1,1)"><g><path fill="none" stroke="none"/><text fill="#000000" stroke="none" font-family="Arial" font-size="13px" font-style="normal" font-weight="normal" text-decoration="none" x="573" y="121.5">+Начать работу()</text></g></g><g transform="translate(-6,-46) scale(1,1)"><path fill="none" stroke="#000000" d="M 567 488 L 520 512" stroke-miterlimit="10"/></g><g transform="translate(-6,-46) scale(1,1)"><path fill="#FFFFFF" stroke="none" d="M 527.1365392182242 503.6292289490903 L 520 512 L 530.9653242492684 511.1272663015518 L 539.5933158279718 501.9949025559293"/></g><g transform="translate(-6,-46) scale(1,1)"><path fill="none" stroke="#000000" d="M 527.1365392182242 503.6292289490903 L 520 512 L 530.9653242492684 511.1272663015518 L 539.5933158279718 501.9949025559293 L 527.1365392182242 503.6292289490903" stroke-miterlimit="10"/></g><g transform="translate(-6,-46) scale(1,1)"><path fill="none" stroke="#000000" d="M 591 566 L 520 564" stroke-miterlimit="10"/></g><g transform="translate(-6,-46) scale(1,1)"><path fill="#FFFFFF" stroke="none" d="M 530.2771761956091 560.0783103839789 L 520 564 L 530.0401143005614 568.4940076581668 L 541.9912767641297 564.6194725849051"/></g><g transform="translate(-6,-46) scale(1,1)"><path fill="none" stroke="#000000" d="M 530.2771761956091 560.0783103839789 L 520 564 L 530.0401143005614 568.4940076581668 L 541.9912767641297 564.6194725849051 L 530.2771761956091 560.0783103839789" stroke-miterlimit="10"/></g><g transform="translate(-6,-46) scale(1,1)"><path fill="#ffffff" stroke="none" d="M 880 168 L 968 168 L 978 178 L 978 216 L 880 216 L 880 168"/></g><g transform="translate(-6,-46) scale(1,1)"><path fill="none" stroke="#000000" d="M 880 168 L 968 168 L 978 178 L 978 216 L 880 216 L 880 168 L 880 168" stroke-miterlimit="10"/></g><g transform="translate(-6,-46) scale(1,1)"><path fill="none" stroke="#000000" d="M 968 168 L 968 178 L 978 178 L 968 168" stroke-miterlimit="10"/></g><g transform="translate(-6,-46) scale(1,1)"><path fill="#C0C0C0" stroke="none" d="M 94.216064453125 74.5 C 94.216064453125 68.1487248 99.364789253125 63 105.716064453125 63 C 112.067339653125 63 117.216064453125 68.1487248 117.216064453125 74.5 C 117.216064453125 80.8512752 112.067339653125 86 105.716064453125 86 C 99.364789253125 86 94.216064453125 80.8512752 94.216064453125 74.5 Z" opacity="0.2"/></g><g transform="translate(-6,-46) scale(1,1)"><path fill="#ffffff" stroke="none" d="M 87.216064453125 67.5 C 87.216064453125 61.1487248 92.364789253125 56 98.716064453125 56 C 105.067339653125 56 110.216064453125 61.1487248 110.216064453125 67.5 C 110.216064453125 73.8512752 105.067339653125 79 98.716064453125 79 C 92.364789253125 79 87.216064453125 73.8512752 87.216064453125 67.5 Z"/></g><g transform="translate(-6,-46) scale(1,1)"><path fill="none" stroke="#000000" d="M 87.216064453125 67.5 C 87.216064453125 61.1487248 92.364789253125 56 98.716064453125 56 C 105.067339653125 56 110.216064453125 61.1487248 110.216064453125 67.5 C 110.216064453125 73.8512752 105.067339653125 79 98.716064453125 79 C 92.364789253125 79 87.216064453125 73.8512752 87.216064453125 67.5 Z" stroke-miterlimit="10"/></g><g transform="translate(-6,-46) scale(1,1)"><g><path fill="none" stroke="none"/><text fill="#000000" stroke="none" font-family="Arial" font-size="13px" font-style="normal" font-weight="bold" text-decoration="none" x="63.140625" y="98.5">Отобразить</text></g></g><g transform="translate(-6,-46) scale(1,1)"><path fill="none" stroke="#000000" d="M 96 287 L 98 79" stroke-miterlimit="10"/></g><g transform="translate(-6,-46) scale(1,1)"><path fill="none" stroke="#000000" d="M 176 151 L 106.52631578947368 79" stroke-miterlimit="10"/></g><g transform="translate(-6,-46) scale(1,1)"><rect fill="#C0C0C0" stroke="none" x="527" y="207" width="182.93212890625" height="70" opacity="0.2"/></g><g transform="translate(-6,-46) scale(1,1)"><rect fill="#ffffff" stroke="none" x="520" y="200" width="182.93212890625" height="70"/></g><g transform="translate(-6,-46) scale(1,1)"><path fill="none" stroke="#000000" d="M 520 200 L 702.93212890625 200 L 702.93212890625 270 L 520 270 L 520 200 Z Z" stroke-miterlimit="10"/></g><g transform="translate(-6,-46) scale(1,1)"><path fill="none" stroke="#000000" d="M 520 225 L 702.93212890625 225" stroke-miterlimit="10"/></g><g transform="translate(-6,-46) scale(1,1)"><path fill="none" stroke="#000000" d="M 520 248 L 702.93212890625 248" stroke-miterlimit="10"/></g><g transform="translate(-6,-46) scale(1,1)"><g><path fill="none" stroke="none"/><text fill="#000000" stroke="none" font-family="Arial" font-size="13px" font-style="normal" font-weight="bold" text-decoration="none" x="568.416259765625" y="219.5">Работа лифта</text></g></g><g transform="translate(-6,-46) scale(1,1)"><g><path fill="none" stroke="none"/><text fill="#000000" stroke="none" font-family="Arial" font-size="13px" font-style="normal" font-weight="normal" text-decoration="none" x="525" y="242.5">+главный контроллер лифта</text></g></g><g transform="translate(-6,-46) scale(1,1)"><g><path fill="none" stroke="none"/><text fill="#000000" stroke="none" font-family="Arial" font-size="13px" font-style="normal" font-weight="normal" text-decoration="none" x="525" y="265.5">+Выполнить()</text></g></g><g transform="translate(-6,-46) scale(1,1)"><path fill="none" stroke="#000000" d="M 469 319 L 550 271" stroke-miterlimit="10"/></g><g transform="translate(-6,-46) scale(1,1)"><path fill="#FFFFFF" stroke="none" d="M 543.4031590749436 279.8023684204594 L 550 271 L 539.1111146468745 272.5595434480928 L 531.0735862600482 282.2156525866381"/></g><g transform="translate(-6,-46) scale(1,1)"><path fill="none" stroke="#000000" d="M 543.4031590749436 279.8023684204594 L 550 271 L 539.1111146468745 272.5595434480928 L 531.0735862600482 282.2156525866381 L 543.4031590749436 279.8023684204594" stroke-miterlimit="10"/></g><g transform="translate(-6,-46) scale(1,1)"><path fill="none" stroke="#000000" d="M 630 199 L 669 127" stroke-miterlimit="10"/></g><g transform="translate(-6,-46) scale(1,1)"><path fill="#FFFFFF" stroke="none" d="M 667.8610843670735 137.94088073150766 L 669 127 L 660.4582940753561 133.93103599016067 L 658.5217707321035 146.34442326380903"/></g><g transform="translate(-6,-46) scale(1,1)"><path fill="none" stroke="#000000" d="M 667.8610843670735 137.94088073150766 L 669 127 L 660.4582940753561 133.93103599016067 L 658.5217707321035 146.34442326380903 L 667.8610843670735 137.94088073150766" stroke-miterlimit="10"/></g></g></svg>