<svg version="1.1" xmlns="http://www.w3.org/2000/svg" xmlns:xlink="http://www.w3.org/1999/xlink" width="869" height="651"><defs/><g><g transform="translate(2,2) scale(1,1)"><path fill="#ffffff" stroke="none" d="M 58.32365696022727 73.68 C 58.32365696022727 68.886167936 62.209499285172726 65 67.0029296875 65 C 71.79636008982727 65 75.68220241477273 68.886167936 75.68220241477273 73.68 C 75.68220241477273 78.473832064 71.79636008982727 82.36 67.0029296875 82.36 C 62.209499285172726 82.36 58.32365696022727 78.473832064 58.32365696022727 73.68 Z"/></g><g transform="translate(2,2) scale(1,1)"><path fill="none" stroke="#000000" d="M 58.32365696022727 73.68 C 58.32365696022727 68.886167936 62.209499285172726 65 67.0029296875 65 C 71.79636008982727 65 75.68220241477273 68.886167936 75.68220241477273 73.68 C 75.68220241477273 78.473832064 71.79636008982727 82.36 67.0029296875 82.36 C 62.209499285172726 82.36 58.32365696022727 78.473832064 58.32365696022727 73.68 Z" stroke-miterlimit="10"/></g><g transform="translate(2,2) scale(1,1)"><path fill="none" stroke="#000000" d="M 67.0029296875 82.36 L 67.0029296875 99.64" stroke-miterlimit="10"/></g><g transform="translate(2,2) scale(1,1)"><path fill="none" stroke="#000000" d="M 57.81311150568182 88.84 L 76.19274786931818 88.84" stroke-miterlimit="10"/></g><g transform="translate(2,2) scale(1,1)"><path fill="none" stroke="#000000" d="M 67.0029296875 99.64 L 54.239293323863635 117" stroke-miterlimit="10"/></g><g transform="translate(2,2) scale(1,1)"><path fill="none" stroke="#000000" d="M 67.0029296875 99.64 L 79.76656605113637 117" stroke-miterlimit="10"/></g><g transform="translate(2,2) scale(1,1)"><g><path fill="none" stroke="none"/><text fill="#000000" stroke="none" font-family="Arial" font-size="13px" font-style="normal" font-weight="bold" text-decoration="none" x="24.102294921875" y="137.5">Пользователь</text></g></g><g transform="translate(2,2) scale(1,1)"><path fill="#C0C0C0" stroke="none" d="M 23 32 C 23 22.6111584 70.010096 15 128 15 C 185.989904 15 233 22.6111584 233 32 C 233 41.3888416 185.989904 49 128 49 C 70.010096 49 23 41.3888416 23 32 Z" opacity="0.2"/></g><g transform="translate(2,2) scale(1,1)"><path fill="#ffffff" stroke="none" d="M 16 25 C 16 15.611158399999999 63.010096 8 121 8 C 178.989904 8 226 15.611158399999999 226 25 C 226 34.3888416 178.989904 42 121 42 C 63.010096 42 16 34.3888416 16 25 Z"/></g><g transform="translate(2,2) scale(1,1)"><path fill="none" stroke="#000000" d="M 16 25 C 16 15.611158399999999 63.010096 8 121 8 C 178.989904 8 226 15.611158399999999 226 25 C 226 34.3888416 178.989904 42 121 42 C 63.010096 42 16 34.3888416 16 25 Z" stroke-miterlimit="10"/></g><g transform="translate(2,2) scale(1,1)"><g><path fill="none" stroke="none"/><text fill="#000000" stroke="none" font-family="Arial" font-size="13px" font-style="normal" font-weight="bold" text-decoration="none" x="56.263427734375" y="32">ввод этажности дома</text></g></g><g transform="translate(2,2) scale(1,1)"><path fill="#C0C0C0" stroke="none" d="M 159 72 C 159 62.6111584 213.6212544 55 281 55 C 348.3787456 55 403 62.6111584 403 72 C 403 81.3888416 348.3787456 89 281 89 C 213.6212544 89 159 81.3888416 159 72 Z" opacity="0.2"/></g><g transform="translate(2,2) scale(1,1)"><path fill="#ffffff" stroke="none" d="M 152 65 C 152 55.6111584 206.6212544 48 274 48 C 341.3787456 48 396 55.6111584 396 65 C 396 74.3888416 341.3787456 82 274 82 C 206.6212544 82 152 74.3888416 152 65 Z"/></g><g transform="translate(2,2) scale(1,1)"><path fill="none" stroke="#000000" d="M 152 65 C 152 55.6111584 206.6212544 48 274 48 C 341.3787456 48 396 55.6111584 396 65 C 396 74.3888416 341.3787456 82 274 82 C 206.6212544 82 152 74.3888416 152 65 Z" stroke-miterlimit="10"/></g><g transform="translate(2,2) scale(1,1)"><g><path fill="none" stroke="none"/><text fill="#000000" stroke="none" font-family="Arial" font-size="13px" font-style="normal" font-weight="bold" text-decoration="none" x="199.07861328125" y="72">ввод количества лифтов</text></g></g><g transform="translate(2,2) scale(1,1)"><path fill="#C0C0C0" stroke="none" d="M 334 187 C 334 175.954304 443.91408160000003 167 579.5 167 C 715.0859184 167 825 175.954304 825 187 C 825 198.045696 715.0859184 207 579.5 207 C 443.91408160000003 207 334 198.045696 334 187 Z" opacity="0.2"/></g><g transform="translate(2,2) scale(1,1)"><path fill="#ffffff" stroke="none" d="M 327 180 C 327 168.954304 436.91408160000003 160 572.5 160 C 708.0859184 160 818 168.954304 818 180 C 818 191.045696 708.0859184 200 572.5 200 C 436.91408160000003 200 327 191.045696 327 180 Z"/></g><g transform="translate(2,2) scale(1,1)"><path fill="none" stroke="#000000" d="M 327 180 C 327 168.954304 436.91408160000003 160 572.5 160 C 708.0859184 160 818 168.954304 818 180 C 818 191.045696 708.0859184 200 572.5 200 C 436.91408160000003 200 327 191.045696 327 180 Z" stroke-miterlimit="10"/></g><g transform="translate(2,2) scale(1,1)"><g><path fill="none" stroke="none"/><text fill="#000000" stroke="none" font-family="Arial" font-size="13px" font-style="normal" font-weight="bold" text-decoration="none" x="415.66845703125" y="187">ввод возможного начального  этажа каждого лифта</text></g></g><g transform="translate(2,2) scale(1,1)"><path fill="#C0C0C0" stroke="none" d="M 359 112 C 359 102.6111584 466.00393280000003 95 598 95 C 729.9960672 95 837 102.6111584 837 112 C 837 121.3888416 729.9960672 129 598 129 C 466.00393280000003 129 359 121.3888416 359 112 Z" opacity="0.2"/></g><g transform="translate(2,2) scale(1,1)"><path fill="#ffffff" stroke="none" d="M 352 105 C 352 95.6111584 459.00393280000003 88 591 88 C 722.9960672 88 830 95.6111584 830 105 C 830 114.3888416 722.9960672 122 591 122 C 459.00393280000003 122 352 114.3888416 352 105 Z"/></g><g transform="translate(2,2) scale(1,1)"><path fill="none" stroke="#000000" d="M 352 105 C 352 95.6111584 459.00393280000003 88 591 88 C 722.9960672 88 830 95.6111584 830 105 C 830 114.3888416 722.9960672 122 591 122 C 459.00393280000003 122 352 114.3888416 352 105 Z" stroke-miterlimit="10"/></g><g transform="translate(2,2) scale(1,1)"><g><path fill="none" stroke="none"/><text fill="#000000" stroke="none" font-family="Arial" font-size="13px" font-style="normal" font-weight="bold" text-decoration="none" x="438.50390625" y="112">ввод возможного конечного  этажа каждого лифта</text></g></g><g transform="translate(2,2) scale(1,1)"><path fill="#C0C0C0" stroke="none" d="M 271 240 C 271 230.6111584 403.7475568 223 567.5 223 C 731.2524432 223 864 230.6111584 864 240 C 864 249.3888416 731.2524432 257 567.5 257 C 403.7475568 257 271 249.3888416 271 240 Z" opacity="0.2"/></g><g transform="translate(2,2) scale(1,1)"><path fill="#ffffff" stroke="none" d="M 264 233 C 264 223.6111584 396.7475568 216 560.5 216 C 724.2524432 216 857 223.6111584 857 233 C 857 242.3888416 724.2524432 250 560.5 250 C 396.7475568 250 264 242.3888416 264 233 Z"/></g><g transform="translate(2,2) scale(1,1)"><path fill="none" stroke="#000000" d="M 264 233 C 264 223.6111584 396.7475568 216 560.5 216 C 724.2524432 216 857 223.6111584 857 233 C 857 242.3888416 724.2524432 250 560.5 250 C 396.7475568 250 264 242.3888416 264 233 Z" stroke-miterlimit="10"/></g><g transform="translate(2,2) scale(1,1)"><g><path fill="none" stroke="none"/><text fill="#000000" stroke="none" font-family="Arial" font-size="13px" font-style="normal" font-weight="bold" text-decoration="none" x="371.108154296875" y="240">ввод первоначального количества пассажиров каждого лифта</text></g></g><g transform="translate(2,2) scale(1,1)"><path fill="#C0C0C0" stroke="none" d="M 279 32 C 279 22.6111584 372.7963344 15 488.5 15 C 604.2036656 15 698 22.6111584 698 32 C 698 41.3888416 604.2036656 49 488.5 49 C 372.7963344 49 279 41.3888416 279 32 Z" opacity="0.2"/></g><g transform="translate(2,2) scale(1,1)"><path fill="#ffffff" stroke="none" d="M 272 25 C 272 15.611158399999999 365.7963344 8 481.5 8 C 597.2036656 8 691 15.611158399999999 691 25 C 691 34.3888416 597.2036656 42 481.5 42 C 365.7963344 42 272 34.3888416 272 25 Z"/></g><g transform="translate(2,2) scale(1,1)"><path fill="none" stroke="#000000" d="M 272 25 C 272 15.611158399999999 365.7963344 8 481.5 8 C 597.2036656 8 691 15.611158399999999 691 25 C 691 34.3888416 597.2036656 42 481.5 42 C 365.7963344 42 272 34.3888416 272 25 Z" stroke-miterlimit="10"/></g><g transform="translate(2,2) scale(1,1)"><g><path fill="none" stroke="none"/><text fill="#000000" stroke="none" font-family="Arial" font-size="13px" font-style="normal" font-weight="bold" text-decoration="none" x="349.325927734375" y="32">ввод грузоподъемности для каждого лифта</text></g></g><g transform="translate(2,2) scale(1,1)"><path fill="#C0C0C0" stroke="none" d="M 139 211 C 139 195.5360256 168.7730608 183 205.5 183 C 242.2269392 183 272 195.5360256 272 211 C 272 226.4639744 242.2269392 239 205.5 239 C 168.7730608 239 139 226.4639744 139 211 Z" opacity="0.2"/></g><g transform="translate(2,2) scale(1,1)"><path fill="#ffffff" stroke="none" d="M 132 204 C 132 188.5360256 161.7730608 176 198.5 176 C 235.2269392 176 265 188.5360256 265 204 C 265 219.4639744 235.2269392 232 198.5 232 C 161.7730608 232 132 219.4639744 132 204 Z"/></g><g transform="translate(2,2) scale(1,1)"><path fill="none" stroke="#000000" d="M 132 204 C 132 188.5360256 161.7730608 176 198.5 176 C 235.2269392 176 265 188.5360256 265 204 C 265 219.4639744 235.2269392 232 198.5 232 C 161.7730608 232 132 219.4639744 132 204 Z" stroke-miterlimit="10"/></g><g transform="translate(2,2) scale(1,1)"><g><path fill="none" stroke="none"/><text fill="#000000" stroke="none" font-family="Arial" font-size="13px" font-style="normal" font-weight="bold" text-decoration="none" x="159.871337890625" y="211">ввод данных</text></g></g><g transform="translate(2,2) scale(1,1)"><path fill="none" stroke="#000000" d="M 186 175 L 129 43" stroke-miterlimit="10" stroke-dasharray="3"/></g><g transform="translate(2,2) scale(1,1)"><path fill="none" stroke="#000000" d="M 136.89345011384626 50.661164748275596 L 129 43 L 129.16425055716542 53.998773647751406" stroke-miterlimit="10"/></g><g transform="translate(2,2) scale(1,1)"><path fill="none" stroke="#000000" d="M 214 175 L 264 83" stroke-miterlimit="10" stroke-dasharray="3"/></g><g transform="translate(2,2) scale(1,1)"><path fill="none" stroke="#000000" d="M 262.84577285830494 93.93927601376683 L 264 83 L 255.44860191047198 89.91907441168371" stroke-miterlimit="10"/></g><g transform="translate(2,2) scale(1,1)"><path fill="none" stroke="#000000" d="M 244 175 L 453 43" stroke-miterlimit="10" stroke-dasharray="3"/></g><g transform="translate(2,2) scale(1,1)"><path fill="none" stroke="#000000" d="M 446.65542416160275 51.985897697549504 L 453 43 L 442.1597182039311 44.8676965979028" stroke-miterlimit="10"/></g><g transform="translate(2,2) scale(1,1)"><path fill="none" stroke="#000000" d="M 266 200 L 326 196" stroke-miterlimit="10" stroke-dasharray="3"/></g><g transform="translate(2,2) scale(1,1)"><path fill="none" stroke="#000000" d="M 316.13984681885256 200.8762054144906 L 326 196 L 315.5798209070276 192.47581673711738" stroke-miterlimit="10"/></g><g transform="translate(2,2) scale(1,1)"><path fill="none" stroke="#000000" d="M 266 187 L 520 123" stroke-miterlimit="10" stroke-dasharray="3"/></g><g transform="translate(2,2) scale(1,1)"><path fill="none" stroke="#000000" d="M 511.1738574757507 129.56499871604237 L 520 123 L 509.11681965878984 121.40112987997891" stroke-miterlimit="10"/></g><g transform="translate(2,2) scale(1,1)"><path fill="none" stroke="#000000" d="M 266 209 L 335 215" stroke-miterlimit="10" stroke-dasharray="3"/></g><g transform="translate(2,2) scale(1,1)"><path fill="none" stroke="#000000" d="M 324.51086191391437 218.31330382111693 L 335 215 L 325.2401997304837 209.92591893056985" stroke-miterlimit="10"/></g><g transform="translate(2,2) scale(1,1)"><path fill="#C0C0C0" stroke="none" d="M 175 504 C 175 494.6111584 235.6654096 487 310.5 487 C 385.3345904 487 446 494.6111584 446 504 C 446 513.3888416 385.3345904 521 310.5 521 C 235.6654096 521 175 513.3888416 175 504 Z" opacity="0.2"/></g><g transform="translate(2,2) scale(1,1)"><path fill="#ffffff" stroke="none" d="M 168 497 C 168 487.6111584 228.6654096 480 303.5 480 C 378.3345904 480 439 487.6111584 439 497 C 439 506.3888416 378.3345904 514 303.5 514 C 228.6654096 514 168 506.3888416 168 497 Z"/></g><g transform="translate(2,2) scale(1,1)"><path fill="none" stroke="#000000" d="M 168 497 C 168 487.6111584 228.6654096 480 303.5 480 C 378.3345904 480 439 487.6111584 439 497 C 439 506.3888416 378.3345904 514 303.5 514 C 228.6654096 514 168 506.3888416 168 497 Z" stroke-miterlimit="10"/></g><g transform="translate(2,2) scale(1,1)"><g><path fill="none" stroke="none"/><text fill="#000000" stroke="none" font-family="Arial" font-size="13px" font-style="normal" font-weight="bold" text-decoration="none" x="218.39697265625" y="504">Реализация работы лифтов</text></g></g><g transform="translate(2,2) scale(1,1)"><path fill="#ffffff" stroke="none" d="M 410.65251438210225 569.6800000000001 C 410.65251438210225 564.8861679360001 414.53835670704774 561 419.331787109375 561 C 424.12521751170226 561 428.01105983664775 564.8861679360001 428.01105983664775 569.6800000000001 C 428.01105983664775 574.473832064 424.12521751170226 578.36 419.331787109375 578.36 C 414.53835670704774 578.36 410.65251438210225 574.473832064 410.65251438210225 569.6800000000001 Z"/></g><g transform="translate(2,2) scale(1,1)"><path fill="none" stroke="#000000" d="M 410.65251438210225 569.6800000000001 C 410.65251438210225 564.8861679360001 414.53835670704774 561 419.331787109375 561 C 424.12521751170226 561 428.01105983664775 564.8861679360001 428.01105983664775 569.6800000000001 C 428.01105983664775 574.473832064 424.12521751170226 578.36 419.331787109375 578.36 C 414.53835670704774 578.36 410.65251438210225 574.473832064 410.65251438210225 569.6800000000001 Z" stroke-miterlimit="10"/></g><g transform="translate(2,2) scale(1,1)"><path fill="none" stroke="#000000" d="M 419.331787109375 578.36 L 419.331787109375 595.64" stroke-miterlimit="10"/></g><g transform="translate(2,2) scale(1,1)"><path fill="none" stroke="#000000" d="M 410.14196892755683 584.84 L 428.52160529119317 584.84" stroke-miterlimit="10"/></g><g transform="translate(2,2) scale(1,1)"><path fill="none" stroke="#000000" d="M 419.331787109375 595.64 L 406.56815074573865 613" stroke-miterlimit="10"/></g><g transform="translate(2,2) scale(1,1)"><path fill="none" stroke="#000000" d="M 419.331787109375 595.64 L 432.09542347301135 613" stroke-miterlimit="10"/></g><g transform="translate(2,2) scale(1,1)"><g><path fill="none" stroke="none"/><text fill="#000000" stroke="none" font-family="Arial" font-size="13px" font-style="normal" font-weight="bold" text-decoration="none" x="393.0810546875" y="633.5">Система</text></g></g><g transform="translate(2,2) scale(1,1)"><path fill="none" stroke="#000000" d="M 375 560 L 323 515" stroke-miterlimit="10"/></g><g transform="translate(2,2) scale(1,1)"><path fill="none" stroke="#000000" d="M 333.4393069822269 518.4671125927533 L 323 515 L 327.93008593254757 524.8333235834939" stroke-miterlimit="10"/></g><g transform="translate(2,2) scale(1,1)"><path fill="#C0C0C0" stroke="none" d="M 23 560 C 23 550.6111584 86.799416 543 165.5 543 C 244.200584 543 308 550.6111584 308 560 C 308 569.3888416 244.200584 577 165.5 577 C 86.799416 577 23 569.3888416 23 560 Z" opacity="0.2"/></g><g transform="translate(2,2) scale(1,1)"><path fill="#ffffff" stroke="none" d="M 16 553 C 16 543.6111584 79.799416 536 158.5 536 C 237.200584 536 301 543.6111584 301 553 C 301 562.3888416 237.200584 570 158.5 570 C 79.799416 570 16 562.3888416 16 553 Z"/></g><g transform="translate(2,2) scale(1,1)"><path fill="none" stroke="#000000" d="M 16 553 C 16 543.6111584 79.799416 536 158.5 536 C 237.200584 536 301 543.6111584 301 553 C 301 562.3888416 237.200584 570 158.5 570 C 79.799416 570 16 562.3888416 16 553 Z" stroke-miterlimit="10"/></g><g transform="translate(2,2) scale(1,1)"><g><path fill="none" stroke="none"/><text fill="#000000" stroke="none" font-family="Arial" font-size="13px" font-style="normal" font-weight="bold" text-decoration="none" x="68.455322265625" y="560">Отображение работы лифтов</text></g></g><g transform="translate(2,2) scale(1,1)"><path fill="none" stroke="#000000" d="M 375 591 L 260 571" stroke-miterlimit="10"/></g><g transform="translate(2,2) scale(1,1)"><path fill="none" stroke="#000000" d="M 270.7336504475937 568.5940182733711 L 260 571 L 269.29112301268964 576.8885510240693" stroke-miterlimit="10"/></g><g transform="translate(2,2) scale(1,1)"><path fill="#C0C0C0" stroke="none" d="M 471 512 C 471 502.6111584 529.6506912 495 602 495 C 674.3493088 495 733 502.6111584 733 512 C 733 521.3888416 674.3493088 529 602 529 C 529.6506912 529 471 521.3888416 471 512 Z" opacity="0.2"/></g><g transform="translate(2,2) scale(1,1)"><path fill="#ffffff" stroke="none" d="M 464 505 C 464 495.6111584 522.6506912 488 595 488 C 667.3493088 488 726 495.6111584 726 505 C 726 514.3888416 667.3493088 522 595 522 C 522.6506912 522 464 514.3888416 464 505 Z"/></g><g transform="translate(2,2) scale(1,1)"><path fill="none" stroke="#000000" d="M 464 505 C 464 495.6111584 522.6506912 488 595 488 C 667.3493088 488 726 495.6111584 726 505 C 726 514.3888416 667.3493088 522 595 522 C 522.6506912 522 464 514.3888416 464 505 Z" stroke-miterlimit="10"/></g><g transform="translate(2,2) scale(1,1)"><g><path fill="none" stroke="none"/><text fill="#000000" stroke="none" font-family="Arial" font-size="13px" font-style="normal" font-weight="bold" text-decoration="none" x="514.21337890625" y="512">Проверка входных данных</text></g></g><g transform="translate(2,2) scale(1,1)"><path fill="none" stroke="#000000" d="M 464 575 L 561 523" stroke-miterlimit="10"/></g><g transform="translate(2,2) scale(1,1)"><path fill="none" stroke="#000000" d="M 554.0320644839547 531.5116317263046 L 561 523 L 550.0542930331013 524.0915580583663" stroke-miterlimit="10"/></g><g transform="translate(2,2) scale(1,1)"><path fill="none" stroke="#000000" d="M 571 487 L 236 233" stroke-miterlimit="10" stroke-dasharray="3"/></g><g transform="translate(2,2) scale(1,1)"><path fill="none" stroke="#000000" d="M 246.64141848537395 235.78571581808725 L 236 233 L 241.55482062702367 242.4944177178799" stroke-miterlimit="10"/></g><g transform="translate(2,2) scale(1,1)"><path fill="#C0C0C0" stroke="none" d="M 15 360 C 15 350.6111584 94.0217328 343 191.5 343 C 288.9782672 343 368 350.6111584 368 360 C 368 369.3888416 288.9782672 377 191.5 377 C 94.0217328 377 15 369.3888416 15 360 Z" opacity="0.2"/></g><g transform="translate(2,2) scale(1,1)"><path fill="#ffffff" stroke="none" d="M 8 353 C 8 343.6111584 87.0217328 336 184.5 336 C 281.9782672 336 361 343.6111584 361 353 C 361 362.3888416 281.9782672 370 184.5 370 C 87.0217328 370 8 362.3888416 8 353 Z"/></g><g transform="translate(2,2) scale(1,1)"><path fill="none" stroke="#000000" d="M 8 353 C 8 343.6111584 87.0217328 336 184.5 336 C 281.9782672 336 361 343.6111584 361 353 C 361 362.3888416 281.9782672 370 184.5 370 C 87.0217328 370 8 362.3888416 8 353 Z" stroke-miterlimit="10"/></g><g transform="translate(2,2) scale(1,1)"><g><path fill="none" stroke="none"/><text fill="#000000" stroke="none" font-family="Arial" font-size="13px" font-style="normal" font-weight="bold" text-decoration="none" x="71.876708984375" y="360">Наблюдение за работой приложения</text></g></g><g transform="translate(2,2) scale(1,1)"><path fill="none" stroke="#000000" d="M 86 144 L 176 335" stroke-miterlimit="10"/></g><g transform="translate(2,2) scale(1,1)"><path fill="none" stroke="#000000" d="M 167.8601815256664 327.60112473379246 L 176 335 L 175.47607403305997 324.0124842852824" stroke-miterlimit="10"/></g><g transform="translate(2,2) scale(1,1)"><path fill="none" stroke="#000000" d="M 119 143 L 160 175" stroke-miterlimit="10"/></g><g transform="translate(2,2) scale(1,1)"><path fill="none" stroke="#000000" d="M 149.39860941672998 172.06563163509526 L 160 175 L 154.57859659788596 165.42877305923915" stroke-miterlimit="10"/></g><g transform="translate(2,2) scale(1,1)"><path fill="none" stroke="#000000" d="M 160 535 L 182 371" stroke-miterlimit="10" stroke-dasharray="3"/></g><g transform="translate(2,2) scale(1,1)"><path fill="none" stroke="#000000" d="M 184.82096331968535 381.63212894715775 L 182 371 L 176.47667181584296 380.51277276981307" stroke-miterlimit="10"/></g><g transform="translate(2,2) scale(1,1)"><path fill="none" stroke="#000000" d="M 288 479 L 199 371" stroke-miterlimit="10" stroke-dasharray="3"/></g><g transform="translate(2,2) scale(1,1)"><path fill="none" stroke="#000000" d="M 208.7116167481418 376.1657042247124 L 199 371 L 202.21444557199777 381.51985454579403" stroke-miterlimit="10"/></g><g transform="translate(2,2) scale(1,1)"><path fill="#C0C0C0" stroke="none" d="M 399 328 C 399 318.6111584 463.0232736 311 542 311 C 620.9767264 311 685 318.6111584 685 328 C 685 337.3888416 620.9767264 345 542 345 C 463.0232736 345 399 337.3888416 399 328 Z" opacity="0.2"/></g><g transform="translate(2,2) scale(1,1)"><path fill="#ffffff" stroke="none" d="M 392 321 C 392 311.6111584 456.0232736 304 535 304 C 613.9767264 304 678 311.6111584 678 321 C 678 330.3888416 613.9767264 338 535 338 C 456.0232736 338 392 330.3888416 392 321 Z"/></g><g transform="translate(2,2) scale(1,1)"><path fill="none" stroke="#000000" d="M 392 321 C 392 311.6111584 456.0232736 304 535 304 C 613.9767264 304 678 311.6111584 678 321 C 678 330.3888416 613.9767264 338 535 338 C 456.0232736 338 392 330.3888416 392 321 Z" stroke-miterlimit="10"/></g><g transform="translate(2,2) scale(1,1)"><g><path fill="none" stroke="none"/><text fill="#000000" stroke="none" font-family="Arial" font-size="13px" font-style="normal" font-weight="bold" text-decoration="none" x="444.24755859375" y="328">Заполнение полей пассажира</text></g></g><g transform="translate(2,2) scale(1,1)"><path fill="none" stroke="#000000" d="M 436 559 L 527 339" stroke-miterlimit="10"/></g><g transform="translate(2,2) scale(1,1)"><path fill="none" stroke="#000000" d="M 527.005420474828 349.999998664475 L 527 339 L 519.2256592058148 346.78200650320144" stroke-miterlimit="10"/></g></g></svg>